# xmcd
#
# Track frame offsets:
#	150
#	23439
#	40154
#	55955
#	74352
#	93357
#	108769
#	126340
#	155501
#	178137
#	196064
#
# Disc length: 2833 seconds
#
# Revision: 9
# Processed by: cddbd v1.5.2PL0 Copyright (c) Steve Scherf et al.
# Submitted via: Jack! The Knife 20 Magnifico
#
DISCID=8b0b0f0b
DTITLE=Marlene Kuntz - Ricoveri Virtuali E Sexy Solitudini
DYEAR=2010
DGENRE=Rock
TTITLE0=Ricovero Virtuale
TTITLE1=Paolo Anima Salva
TTITLE2=Orizzonti
TTITLE3=Io E Me
TTITLE4=Vivo
TTITLE5=Oasi
TTITLE6=Un Piacere Speciale
TTITLE7=L'artista
TTITLE8=Pornorima
TTITLE9=L'idiota
TTITLE10=Scatti
EXTD=Howie B, Gianni Maroccolo, Beppe Godano
EXTT0=Godano, Tesio, Bergia, Saporiti, Arneodo
EXTT1=Godano, Tesio, Bergia, Saporiti, Arneodo
EXTT2=Godano, Tesio, Bergia, Saporiti, Arneodo
EXTT3=Godano, Tesio, Bergia, Saporiti, Arneodo
EXTT4=Godano, Tesio, Bergia, Saporiti, Arneodo
EXTT5=Godano, Tesio, Bergia, Saporiti, Arneodo
EXTT6=Godano, Tesio, Bergia, Saporiti, Arneodo
EXTT7=Godano, Tesio, Bergia, Saporiti, Arneodo
EXTT8=Godano, Tesio, Bergia, Saporiti, Arneodo
EXTT9=Godano, Tesio, Bergia, Saporiti, Arneodo
EXTT10=Godano, Tesio, Bergia, Saporiti, Arneodo
PLAYORDER=
